<svg width="72" height="72" viewBox="0 0 72 72" fill="none" xmlns="http://www.w3.org/2000/svg">
<path fill-rule="evenodd" clip-rule="evenodd" d="M36 69.75C54.6396 69.75 69.75 54.6396 69.75 36C69.75 17.3604 54.6396 2.25 36 2.25C17.3604 2.25 2.25 17.3604 2.25 36C2.25 54.6396 17.3604 69.75 36 69.75ZM36 72C55.8822 72 72 55.8822 72 36C72 16.1177 55.8822 0 36 0C16.1177 0 0 16.1177 0 36C0 55.8822 16.1177 72 36 72Z" fill="#E7ECF3"/>
<path fill-rule="evenodd" clip-rule="evenodd" d="M36 64.5C51.7401 64.5 64.5 51.7401 64.5 36C64.5 20.2599 51.7401 7.5 36 7.5C20.2599 7.5 7.5 20.2599 7.5 36C7.5 51.7401 20.2599 64.5 36 64.5ZM36 65.25C52.1543 65.25 65.25 52.1543 65.25 36C65.25 19.8457 52.1543 6.75 36 6.75C19.8457 6.75 6.75 19.8457 6.75 36C6.75 52.1543 19.8457 65.25 36 65.25Z" fill="#5D6470"/>
<path d="M15.9978 32.4016C15.9978 31.8036 15.9899 31.3275 15.9743 30.9734C15.9665 30.6192 15.9391 30.3478 15.8921 30.1589C15.8452 29.97 15.7708 29.8441 15.6691 29.7812C15.5674 29.7104 15.4304 29.6592 15.2582 29.6277C15.1956 29.6277 15.1487 29.6159 15.1174 29.5923C15.0861 29.5608 15.0704 29.5294 15.0704 29.4979C15.0704 29.4113 15.1213 29.368 15.223 29.368C15.2387 29.368 15.2504 29.372 15.2582 29.3798C15.2661 29.3798 15.2778 29.3798 15.2935 29.3798C15.5047 29.4035 15.716 29.4192 15.9273 29.4271C16.1386 29.4271 16.3577 29.4271 16.5847 29.4271C16.7021 29.4271 16.8468 29.4271 17.019 29.4271C17.199 29.4192 17.3829 29.4113 17.5707 29.4035C17.7663 29.3956 17.9541 29.3916 18.1341 29.3916C18.3219 29.3838 18.4824 29.3798 18.6154 29.3798C18.991 29.3798 19.3471 29.3798 19.6836 29.3798C20.0201 29.3798 20.2549 29.372 20.3879 29.3562C20.3879 29.3012 20.4192 29.2736 20.4818 29.2736C20.5053 29.2736 20.5288 29.2815 20.5522 29.2972C20.5757 29.3051 20.5874 29.3287 20.5874 29.368V29.4035C20.6031 29.4664 20.6187 29.5923 20.6344 29.7812C20.6579 29.9622 20.6774 30.1628 20.6931 30.3832C20.7166 30.6035 20.7322 30.816 20.74 31.0206C20.7557 31.2252 20.7674 31.3747 20.7753 31.4691V31.5045C20.7753 31.6226 20.74 31.6816 20.6696 31.6816C20.6383 31.6816 20.607 31.6659 20.5757 31.6344C20.5522 31.6029 20.5366 31.5557 20.5288 31.4927C20.4896 31.1701 20.4309 30.8947 20.3527 30.6665C20.2823 30.4383 20.1766 30.2533 20.0357 30.1117C19.8949 29.9622 19.7071 29.8559 19.4723 29.793C19.2454 29.7222 18.9597 29.6828 18.6154 29.6749C18.3572 29.6749 18.1067 29.6828 17.8642 29.6985C17.6294 29.7143 17.4142 29.734 17.2185 29.7576C17.2107 29.852 17.2029 29.97 17.1951 30.1117C17.1951 30.2533 17.1912 30.4068 17.1833 30.572C17.1833 30.7373 17.1833 30.9065 17.1833 31.0796C17.1833 31.2527 17.1833 31.418 17.1833 31.5754C17.1833 31.6068 17.1833 31.7209 17.1833 31.9177C17.1833 32.1144 17.1833 32.3387 17.1833 32.5905C17.1912 32.8423 17.1951 33.0941 17.1951 33.3459C17.1951 33.5899 17.1951 33.7788 17.1951 33.9125H17.3477C17.5746 33.9125 17.8524 33.9047 18.1811 33.8889C18.5098 33.8732 18.8463 33.8496 19.1906 33.8181C19.4097 33.8024 19.5858 33.7866 19.7188 33.7709C19.8597 33.7473 19.9692 33.704 20.0475 33.641C20.1336 33.5781 20.1962 33.4876 20.2353 33.3696C20.2823 33.2515 20.3214 33.0823 20.3527 32.862C20.3605 32.7676 20.4035 32.7203 20.4818 32.7203C20.5601 32.7203 20.5992 32.7676 20.5992 32.862V32.8738C20.5835 33.0784 20.5718 33.283 20.564 33.4876C20.5561 33.6922 20.5522 33.9047 20.5522 34.125C20.5522 34.2903 20.5561 34.487 20.564 34.7152C20.5718 34.9434 20.5835 35.1598 20.5992 35.3644V35.3998C20.5992 35.5179 20.5601 35.5769 20.4818 35.5769C20.4505 35.5769 20.4192 35.5651 20.3879 35.5415C20.3644 35.51 20.3527 35.4628 20.3527 35.3998C20.3214 35.1716 20.2862 34.9906 20.247 34.8568C20.2079 34.7152 20.1492 34.609 20.071 34.5381C19.9927 34.4594 19.8831 34.4044 19.7423 34.3729C19.6014 34.3414 19.4136 34.3178 19.1788 34.3021C18.9832 34.2863 18.7837 34.2745 18.5802 34.2666C18.3846 34.2509 18.1967 34.2391 18.0168 34.2312C17.8368 34.2155 17.6724 34.2076 17.5237 34.2076C17.3829 34.1998 17.2733 34.1958 17.1951 34.1958C17.1951 34.3139 17.1951 34.4949 17.1951 34.7388C17.1951 34.9827 17.1912 35.2503 17.1833 35.5415C17.1833 35.8326 17.1833 36.1199 17.1833 36.4031C17.1833 36.6786 17.1833 36.9107 17.1833 37.0996C17.1833 37.375 17.199 37.5953 17.2303 37.7606C17.2616 37.9258 17.3281 38.0557 17.4298 38.1501C17.5316 38.2446 17.6803 38.3114 17.8759 38.3508C18.0715 38.3823 18.3337 38.398 18.6624 38.398C19.4919 38.398 20.1101 38.2642 20.517 37.9967C20.9318 37.7291 21.2096 37.2924 21.3504 36.6864C21.3504 36.592 21.3935 36.5448 21.4796 36.5448C21.5109 36.5448 21.5383 36.5566 21.5617 36.5802C21.593 36.6038 21.6087 36.6353 21.6087 36.6746C21.6087 36.6904 21.6009 36.714 21.5852 36.7455C21.5617 36.8635 21.5304 37.0169 21.4913 37.2058C21.4522 37.3868 21.4091 37.5717 21.3622 37.7606C21.323 37.9416 21.2839 38.1108 21.2448 38.2682C21.2135 38.4255 21.19 38.5318 21.1744 38.5869C21.19 38.6026 21.1978 38.6262 21.1978 38.6577C21.1978 38.697 21.1822 38.7246 21.1509 38.7403C21.1274 38.7561 21.0961 38.7639 21.057 38.7639C21.0335 38.7639 21.01 38.76 20.9866 38.7521C20.9631 38.7442 20.9435 38.7246 20.9279 38.6931C20.7166 38.6852 20.4153 38.6813 20.024 38.6813C19.6406 38.6813 19.1867 38.6813 18.6624 38.6813C18.5215 38.6813 18.3572 38.6774 18.1694 38.6695C17.9815 38.6695 17.7898 38.6656 17.5942 38.6577C17.3985 38.6577 17.2107 38.6577 17.0307 38.6577C16.8507 38.6577 16.7021 38.6577 16.5847 38.6577H15.9743C15.8412 38.6577 15.7043 38.6577 15.5634 38.6577C15.4226 38.6577 15.2895 38.6656 15.1643 38.6813C15.0548 38.6813 15 38.6498 15 38.5869C15 38.5554 15.0157 38.5239 15.047 38.4924C15.0783 38.461 15.1135 38.4413 15.1526 38.4334C15.3639 38.4019 15.5243 38.3587 15.6339 38.3036C15.7513 38.2485 15.8334 38.1265 15.8804 37.9377C15.9352 37.7409 15.9665 37.4537 15.9743 37.076C15.9899 36.6904 15.9978 36.1592 15.9978 35.4824V32.4016Z" fill="#E7ECF3"/>
<path d="M25.4664 38.6223C25.4194 38.6223 25.3725 38.6183 25.3255 38.6105C25.2786 38.6105 25.2316 38.6105 25.1847 38.6105C25.0047 38.6105 24.8169 38.6183 24.6212 38.6341C24.4256 38.6498 24.23 38.6656 24.0343 38.6813H24.0108C23.9248 38.6813 23.8817 38.6419 23.8817 38.5633C23.8817 38.4924 23.9287 38.4492 24.0226 38.4334C24.2339 38.4019 24.3943 38.3587 24.5039 38.3036C24.6212 38.2485 24.7034 38.1265 24.7504 37.9377C24.8051 37.7409 24.8364 37.4537 24.8443 37.076C24.8599 36.6904 24.8677 36.1592 24.8677 35.4824V32.4016V31.174C24.8677 30.8671 24.8599 30.6192 24.8443 30.4304C24.8286 30.2337 24.7934 30.0802 24.7386 29.97C24.6917 29.8599 24.6173 29.7812 24.5156 29.734C24.4217 29.6789 24.2926 29.6435 24.1282 29.6277C24.0265 29.6199 23.9756 29.5726 23.9756 29.4861C23.9756 29.4074 24.0148 29.368 24.093 29.368C24.1243 29.368 24.1478 29.372 24.1634 29.3798C24.3669 29.4035 24.5665 29.4192 24.7621 29.4271C24.9656 29.4271 25.1808 29.4271 25.4077 29.4271C25.5486 29.4271 25.709 29.4271 25.889 29.4271C26.069 29.4192 26.2529 29.4113 26.4407 29.4035C26.6363 29.3956 26.8241 29.3916 27.0041 29.3916C27.1919 29.3838 27.3524 29.3798 27.4854 29.3798H28.2601C28.5105 29.3798 28.7531 29.3798 28.9879 29.3798C29.2305 29.372 29.4653 29.3602 29.6922 29.3444C29.7 29.2815 29.7352 29.25 29.7978 29.25C29.837 29.25 29.8722 29.2618 29.9035 29.2854C29.9348 29.309 29.9504 29.3405 29.9504 29.3798C29.9504 29.4035 29.9465 29.4192 29.9387 29.4271C29.9622 29.4979 29.9896 29.6238 30.0209 29.8048C30.06 29.9858 30.0952 30.1825 30.1265 30.395C30.1656 30.5996 30.2009 30.8002 30.2322 30.997C30.2635 31.1858 30.2869 31.3275 30.3026 31.4219V31.4573C30.3026 31.5518 30.2635 31.599 30.1852 31.599C30.1226 31.599 30.0796 31.5518 30.0561 31.4573C29.97 31.0717 29.8604 30.7609 29.7274 30.5248C29.5944 30.2887 29.4261 30.1077 29.2227 29.9818C29.0192 29.8559 28.7727 29.7733 28.4831 29.734C28.2014 29.6867 27.8688 29.6631 27.4854 29.6631C27.2271 29.6631 26.9767 29.6789 26.7341 29.7104C26.4915 29.734 26.2763 29.7615 26.0885 29.793C26.0807 29.8874 26.0729 30.0054 26.0651 30.1471C26.0651 30.2809 26.0611 30.4304 26.0533 30.5956C26.0533 30.753 26.0533 30.9183 26.0533 31.0914C26.0533 31.2567 26.0533 31.418 26.0533 31.5754C26.0533 31.6147 26.0533 31.7367 26.0533 31.9413C26.0533 32.1459 26.0533 32.378 26.0533 32.6377C26.0611 32.8895 26.0651 33.1374 26.0651 33.3814C26.0651 33.6253 26.0651 33.8024 26.0651 33.9125H26.1942C26.4368 33.9125 26.7459 33.9047 27.1215 33.8889C27.505 33.8653 27.8962 33.8417 28.2953 33.8181C28.4597 33.8102 28.5927 33.7984 28.6944 33.7827C28.7962 33.7591 28.8783 33.7158 28.9409 33.6528C29.0114 33.5899 29.0662 33.4955 29.1053 33.3696C29.1444 33.2436 29.1835 33.0705 29.2227 32.8502C29.2305 32.7636 29.2735 32.7203 29.3518 32.7203C29.43 32.7203 29.4692 32.7676 29.4692 32.862V32.8738C29.4535 33.0784 29.4418 33.283 29.434 33.4876C29.4261 33.6922 29.4222 33.9047 29.4222 34.125C29.4222 34.2116 29.4222 34.3139 29.4222 34.4319C29.4222 34.5499 29.4222 34.6798 29.4222 34.8214C29.43 34.9552 29.4379 35.089 29.4457 35.2228C29.4535 35.3565 29.4613 35.4824 29.4692 35.6005V35.6359C29.4692 35.7539 29.434 35.813 29.3635 35.813C29.3322 35.813 29.3009 35.8011 29.2696 35.7775C29.2461 35.7461 29.2305 35.6989 29.2227 35.6359C29.1757 35.3683 29.1327 35.1519 29.0935 34.9867C29.0622 34.8136 29.0153 34.6798 28.9527 34.5854C28.8901 34.4909 28.8079 34.424 28.7062 34.3847C28.6044 34.3453 28.4636 34.3178 28.2836 34.3021C28.088 34.2942 27.8767 34.2824 27.6497 34.2666C27.4306 34.2509 27.2154 34.2391 27.0041 34.2312C26.8007 34.2234 26.6128 34.2155 26.4407 34.2076C26.2685 34.1998 26.1433 34.1958 26.0651 34.1958V37.0642C26.0651 37.3475 26.0807 37.5757 26.112 37.7488C26.1511 37.914 26.2098 38.0478 26.2881 38.1501C26.3742 38.2446 26.4798 38.3114 26.605 38.3508C26.738 38.3901 26.8985 38.4177 27.0863 38.4334C27.1802 38.4492 27.2271 38.5003 27.2271 38.5869C27.2271 38.6577 27.188 38.6931 27.1098 38.6931H27.098L25.4664 38.6223Z" fill="#E7ECF3"/>
<path d="M37.5729 38.9174C37.5495 38.9725 37.5025 39 37.4321 39C37.3538 39 37.3147 38.9646 37.3147 38.8938C37.3147 38.8859 37.3147 38.878 37.3147 38.8702C37.3225 38.8702 37.3264 38.8623 37.3264 38.8465C37.2951 38.76 37.2051 38.5593 37.0565 38.2446C36.9156 37.9219 36.7317 37.5324 36.5048 37.076C36.2856 36.6117 36.0391 36.0962 35.7652 35.5297C35.4914 34.9631 35.2096 34.3847 34.9201 33.7945C34.8027 33.5584 34.6971 33.3459 34.6032 33.1571C34.5092 32.9682 34.4153 32.7872 34.3214 32.6141C34.2354 32.4331 34.1493 32.2561 34.0632 32.0829C33.9771 31.9098 33.8832 31.7249 33.7815 31.5281C33.7658 31.717 33.7502 31.9885 33.7345 32.3426C33.7189 32.6967 33.7032 33.0902 33.6876 33.523C33.6719 33.9479 33.6523 34.3886 33.6289 34.845C33.6132 35.2936 33.5976 35.7107 33.5819 36.0962C33.5741 36.1749 33.5702 36.2497 33.5702 36.3205C33.578 36.3835 33.5819 36.4464 33.5819 36.5094C33.5819 36.8399 33.5937 37.1192 33.6171 37.3475C33.6484 37.5678 33.7071 37.7527 33.7932 37.9022C33.8793 38.0518 34.0045 38.1698 34.1688 38.2564C34.3332 38.335 34.5562 38.3941 34.8379 38.4334C34.8927 38.4413 34.9318 38.461 34.9553 38.4924C34.9788 38.516 34.9905 38.5436 34.9905 38.5751C34.9905 38.6459 34.9436 38.6813 34.8497 38.6813H34.8379C34.744 38.6734 34.6266 38.6656 34.4858 38.6577C34.3449 38.6498 34.204 38.6419 34.0632 38.6341C33.9223 38.6262 33.7854 38.6183 33.6523 38.6105C33.5193 38.6026 33.4137 38.5987 33.3354 38.5987C33.2572 38.5987 33.1593 38.6026 33.042 38.6105C32.9246 38.6183 32.7994 38.6262 32.6663 38.6341C32.5411 38.6419 32.4198 38.6498 32.3024 38.6577C32.1851 38.6656 32.0872 38.6734 32.009 38.6813H31.9972C31.8955 38.6813 31.8446 38.6419 31.8446 38.5633C31.8446 38.5003 31.8994 38.457 32.009 38.4334C32.2672 38.3862 32.4746 38.3154 32.6311 38.2209C32.7876 38.1265 32.9128 37.9888 33.0067 37.8078C33.1006 37.6268 33.1672 37.3986 33.2063 37.1232C33.2532 36.8478 33.2885 36.5054 33.3119 36.0962C33.3276 35.7028 33.3432 35.2503 33.3589 34.7388C33.3824 34.2273 33.398 33.7237 33.4058 33.2279C33.4215 32.7321 33.4332 32.2757 33.4411 31.8587C33.4567 31.4416 33.4684 31.1268 33.4763 30.9143C33.3432 30.6547 33.2337 30.4461 33.1476 30.2887C33.0693 30.1235 32.9911 29.9976 32.9128 29.911C32.8346 29.8245 32.7446 29.7615 32.6428 29.7222C32.5489 29.6828 32.4159 29.6513 32.2437 29.6277C32.142 29.6199 32.0911 29.5766 32.0911 29.4979C32.0911 29.4192 32.1381 29.3798 32.232 29.3798H32.2437C32.4785 29.3956 32.7094 29.4113 32.9363 29.4271C33.1711 29.4349 33.3315 29.4389 33.4176 29.4389C33.5037 29.4389 33.6132 29.4389 33.7463 29.4389C33.8793 29.4389 33.9888 29.4349 34.0749 29.4271C34.0984 29.4743 34.161 29.6081 34.2627 29.8284C34.3723 30.0487 34.5092 30.3281 34.6736 30.6665C34.8379 30.997 35.0218 31.3708 35.2253 31.7878C35.4366 32.197 35.6518 32.618 35.8709 33.0508L37.9368 37.2058C37.9838 37.1271 38.0581 36.9894 38.1599 36.7927C38.2616 36.5959 38.3829 36.3559 38.5238 36.0726C38.6646 35.7893 38.8211 35.4706 38.9933 35.1165C39.1733 34.7545 39.3572 34.3689 39.545 33.9597C39.7798 33.464 40.0106 32.9643 40.2376 32.4607C40.4723 31.9492 40.6836 31.4809 40.8714 31.056C41.0592 30.6232 41.2118 30.2573 41.3292 29.9582C41.4544 29.6513 41.5249 29.4507 41.5405 29.3562C41.5796 29.3641 41.6344 29.372 41.7048 29.3798C41.7831 29.3877 41.8653 29.3956 41.9513 29.4035C42.0374 29.4035 42.1235 29.4074 42.2096 29.4153C42.2957 29.4153 42.37 29.4153 42.4326 29.4153C42.5422 29.4153 42.6517 29.4153 42.7613 29.4153C42.8787 29.4074 43.0274 29.3956 43.2074 29.3798C43.2387 29.3798 43.2543 29.4192 43.2543 29.4979C43.2543 29.5294 43.2504 29.5608 43.2426 29.5923C43.2347 29.6159 43.223 29.6277 43.2074 29.6277C43.0508 29.6513 42.9178 29.6867 42.8082 29.734C42.7065 29.7812 42.6204 29.852 42.55 29.9464C42.4874 30.0409 42.4365 30.1628 42.3974 30.3123C42.3661 30.4619 42.3465 30.6507 42.3387 30.8789C42.3309 30.9812 42.327 31.1504 42.327 31.3865C42.327 31.6226 42.3231 31.8941 42.3152 32.201C42.3152 32.5 42.3152 32.8226 42.3152 33.1689C42.3152 33.5073 42.3152 33.8299 42.3152 34.1368C42.3152 34.4437 42.3152 34.7191 42.3152 34.9631C42.3152 35.1992 42.3152 35.3723 42.3152 35.4824C42.3152 36.1671 42.3231 36.6982 42.3387 37.076C42.3544 37.4537 42.3935 37.7409 42.4561 37.9377C42.5265 38.1265 42.6243 38.2485 42.7496 38.3036C42.8748 38.3587 43.0469 38.4019 43.266 38.4334C43.3678 38.457 43.4186 38.5042 43.4186 38.5751C43.4186 38.6459 43.3756 38.6813 43.2895 38.6813H43.266C43.1565 38.6656 43.0234 38.6538 42.8669 38.6459C42.7183 38.638 42.5696 38.6301 42.4209 38.6223C42.28 38.6144 42.147 38.6105 42.0218 38.6105C41.8966 38.6105 41.8027 38.6105 41.7401 38.6105C41.6853 38.6105 41.5992 38.6105 41.4818 38.6105C41.3644 38.6105 41.2314 38.6105 41.0827 38.6105C40.9419 38.6183 40.7932 38.6262 40.6367 38.6341C40.488 38.6498 40.3471 38.6656 40.2141 38.6813H40.1906C40.128 38.6813 40.0967 38.6459 40.0967 38.5751C40.0967 38.5436 40.1045 38.516 40.1202 38.4924C40.1436 38.461 40.1749 38.4413 40.2141 38.4334C40.4019 38.4098 40.5584 38.3705 40.6836 38.3154C40.8088 38.2603 40.9066 38.1344 40.9771 37.9377C41.0475 37.7409 41.0944 37.4537 41.1179 37.076C41.1492 36.6982 41.1649 36.171 41.1649 35.4942C41.1649 35.3211 41.1649 35.085 41.1649 34.786C41.1649 34.487 41.1649 34.1525 41.1649 33.7827C41.1727 33.405 41.1766 32.9997 41.1766 32.5669C41.1766 32.1262 41.1766 31.6737 41.1766 31.2094C41.0984 31.3432 40.9379 31.658 40.6953 32.1538C40.4606 32.6495 40.1593 33.2909 39.7915 34.0778L37.5729 38.9174Z" fill="#E7ECF3"/>
<path d="M51.1543 38.9174C51.1308 38.9725 51.0839 39 51.0135 39C50.9352 39 50.8961 38.9646 50.8961 38.8938C50.8961 38.8859 50.8961 38.878 50.8961 38.8702C50.9039 38.8702 50.9078 38.8623 50.9078 38.8465C50.8765 38.76 50.7865 38.5593 50.6378 38.2446C50.497 37.9219 50.3131 37.5324 50.0861 37.076C49.867 36.6117 49.6205 36.0962 49.3466 35.5297C49.0727 34.9631 48.791 34.3847 48.5014 33.7945C48.3841 33.5584 48.2784 33.3459 48.1845 33.1571C48.0906 32.9682 47.9967 32.7872 47.9028 32.6141C47.8167 32.4331 47.7306 32.2561 47.6446 32.0829C47.5585 31.9098 47.4646 31.7249 47.3628 31.5281C47.3472 31.717 47.3315 31.9885 47.3159 32.3426C47.3002 32.6967 47.2846 33.0902 47.2689 33.523C47.2533 33.9479 47.2337 34.3886 47.2102 34.845C47.1946 35.2936 47.1789 35.7107 47.1633 36.0962C47.1555 36.1749 47.1515 36.2497 47.1515 36.3205C47.1594 36.3835 47.1633 36.4464 47.1633 36.5094C47.1633 36.8399 47.175 37.1192 47.1985 37.3475C47.2298 37.5678 47.2885 37.7527 47.3746 37.9022C47.4607 38.0518 47.5859 38.1698 47.7502 38.2564C47.9145 38.335 48.1376 38.3941 48.4193 38.4334C48.4741 38.4413 48.5132 38.461 48.5367 38.4924C48.5601 38.516 48.5719 38.5436 48.5719 38.5751C48.5719 38.6459 48.5249 38.6813 48.431 38.6813H48.4193C48.3254 38.6734 48.208 38.6656 48.0671 38.6577C47.9263 38.6498 47.7854 38.6419 47.6446 38.6341C47.5037 38.6262 47.3667 38.6183 47.2337 38.6105C47.1007 38.6026 46.995 38.5987 46.9168 38.5987C46.8385 38.5987 46.7407 38.6026 46.6233 38.6105C46.5059 38.6183 46.3807 38.6262 46.2477 38.6341C46.1225 38.6419 46.0012 38.6498 45.8838 38.6577C45.7664 38.6656 45.6686 38.6734 45.5903 38.6813H45.5786C45.4769 38.6813 45.426 38.6419 45.426 38.5633C45.426 38.5003 45.4808 38.457 45.5903 38.4334C45.8486 38.3862 46.056 38.3154 46.2125 38.2209C46.369 38.1265 46.4942 37.9888 46.5881 37.8078C46.682 37.6268 46.7485 37.3986 46.7877 37.1232C46.8346 36.8478 46.8698 36.5054 46.8933 36.0962C46.909 35.7028 46.9246 35.2503 46.9403 34.7388C46.9637 34.2273 46.9794 33.7237 46.9872 33.2279C47.0029 32.7321 47.0146 32.2757 47.0224 31.8587C47.0381 31.4416 47.0498 31.1268 47.0576 30.9143C46.9246 30.6547 46.815 30.4461 46.729 30.2887C46.6507 30.1235 46.5725 29.9976 46.4942 29.911C46.4159 29.8245 46.3259 29.7615 46.2242 29.7222C46.1303 29.6828 45.9973 29.6513 45.8251 29.6277C45.7234 29.6199 45.6725 29.5766 45.6725 29.4979C45.6725 29.4192 45.7195 29.3798 45.8134 29.3798H45.8251C46.0599 29.3956 46.2907 29.4113 46.5177 29.4271C46.7524 29.4349 46.9129 29.4389 46.9989 29.4389C47.085 29.4389 47.1946 29.4389 47.3276 29.4389C47.4607 29.4389 47.5702 29.4349 47.6563 29.4271C47.6798 29.4743 47.7424 29.6081 47.8441 29.8284C47.9537 30.0487 48.0906 30.3281 48.2549 30.6665C48.4193 30.997 48.6032 31.3708 48.8066 31.7878C49.0179 32.197 49.2331 32.618 49.4523 33.0508L51.5182 37.2058C51.5652 37.1271 51.6395 36.9894 51.7412 36.7927C51.843 36.5959 51.9643 36.3559 52.1051 36.0726C52.246 35.7893 52.4025 35.4706 52.5747 35.1165C52.7546 34.7545 52.9385 34.3689 53.1264 33.9597C53.3611 33.464 53.592 32.9643 53.8189 32.4607C54.0537 31.9492 54.265 31.4809 54.4528 31.056C54.6406 30.6232 54.7932 30.2573 54.9106 29.9582C55.0358 29.6513 55.1062 29.4507 55.1219 29.3562C55.161 29.3641 55.2158 29.372 55.2862 29.3798C55.3645 29.3877 55.4466 29.3956 55.5327 29.4035C55.6188 29.4035 55.7049 29.4074 55.791 29.4153C55.877 29.4153 55.9514 29.4153 56.014 29.4153C56.1235 29.4153 56.2331 29.4153 56.3427 29.4153C56.46 29.4074 56.6087 29.3956 56.7887 29.3798C56.82 29.3798 56.8357 29.4192 56.8357 29.4979C56.8357 29.5294 56.8318 29.5608 56.8239 29.5923C56.8161 29.6159 56.8044 29.6277 56.7887 29.6277C56.6322 29.6513 56.4992 29.6867 56.3896 29.734C56.2879 29.7812 56.2018 29.852 56.1314 29.9464C56.0688 30.0409 56.0179 30.1628 55.9788 30.3123C55.9475 30.4619 55.9279 30.6507 55.9201 30.8789C55.9123 30.9812 55.9083 31.1504 55.9083 31.3865C55.9083 31.6226 55.9044 31.8941 55.8966 32.201C55.8966 32.5 55.8966 32.8226 55.8966 33.1689C55.8966 33.5073 55.8966 33.8299 55.8966 34.1368C55.8966 34.4437 55.8966 34.7191 55.8966 34.9631C55.8966 35.1992 55.8966 35.3723 55.8966 35.4824C55.8966 36.1671 55.9044 36.6982 55.9201 37.076C55.9357 37.4537 55.9749 37.7409 56.0375 37.9377C56.1079 38.1265 56.2057 38.2485 56.3309 38.3036C56.4561 38.3587 56.6283 38.4019 56.8474 38.4334C56.9491 38.457 57 38.5042 57 38.5751C57 38.6459 56.957 38.6813 56.8709 38.6813H56.8474C56.7378 38.6656 56.6048 38.6538 56.4483 38.6459C56.2996 38.638 56.1509 38.6301 56.0022 38.6223C55.8614 38.6144 55.7284 38.6105 55.6031 38.6105C55.4779 38.6105 55.384 38.6105 55.3214 38.6105C55.2666 38.6105 55.1806 38.6105 55.0632 38.6105C54.9458 38.6105 54.8128 38.6105 54.6641 38.6105C54.5232 38.6183 54.3745 38.6262 54.218 38.6341C54.0693 38.6498 53.9285 38.6656 53.7954 38.6813H53.772C53.7094 38.6813 53.6781 38.6459 53.6781 38.5751C53.6781 38.5436 53.6859 38.516 53.7015 38.4924C53.725 38.461 53.7563 38.4413 53.7954 38.4334C53.9833 38.4098 54.1398 38.3705 54.265 38.3154C54.3902 38.2603 54.488 38.1344 54.5584 37.9377C54.6289 37.7409 54.6758 37.4537 54.6993 37.076C54.7306 36.6982 54.7462 36.171 54.7462 35.4942C54.7462 35.3211 54.7462 35.085 54.7462 34.786C54.7462 34.487 54.7462 34.1525 54.7462 33.7827C54.7541 33.405 54.758 32.9997 54.758 32.5669C54.758 32.1262 54.758 31.6737 54.758 31.2094C54.6797 31.3432 54.5193 31.658 54.2767 32.1538C54.0419 32.6495 53.7407 33.2909 53.3729 34.0778L51.1543 38.9174Z" fill="#E7ECF3"/>
<path fill-rule="evenodd" clip-rule="evenodd" d="M60.375 42.75H12V42H60.375V42.75Z" fill="#5D6470"/>
</svg>
