<svg width="492" height="431" viewBox="0 0 492 431" fill="none" xmlns="http://www.w3.org/2000/svg">
<g clip-path="url(#clip0_120_3724)">
<path d="M268.346 415.743C267.951 415.761 267.561 415.657 267.228 415.446C266.894 415.235 266.634 414.927 266.482 414.563C266.329 414.199 266.293 413.797 266.377 413.411C266.461 413.026 266.661 412.675 266.951 412.407L267.083 411.883C267.065 411.841 267.048 411.799 267.03 411.757C266.633 410.819 265.968 410.02 265.117 409.459C264.267 408.898 263.27 408.6 262.252 408.604C261.233 408.608 260.238 408.913 259.392 409.48C258.546 410.047 257.887 410.852 257.496 411.793C255.937 415.548 253.952 419.309 253.463 423.28C253.248 425.035 253.339 426.814 253.731 428.538C250.069 420.55 248.167 411.867 248.155 403.08C248.154 400.875 248.277 398.671 248.522 396.48C248.725 394.683 249.006 392.899 249.366 391.129C251.329 381.519 255.543 372.513 261.663 364.849C264.625 363.233 267.021 360.748 268.527 357.728C269.072 356.643 269.458 355.485 269.672 354.289C269.338 354.333 268.412 349.244 268.664 348.932C268.198 348.226 267.365 347.874 266.856 347.185C264.327 343.756 260.842 344.355 259.023 349.014C255.137 350.975 255.099 354.228 257.484 357.356C259.001 359.346 259.209 362.039 260.54 364.17C260.403 364.345 260.261 364.515 260.124 364.69C257.621 367.909 255.439 371.365 253.61 375.009C254.055 370.927 253.524 366.797 252.061 362.959C250.578 359.383 247.799 356.371 245.352 353.279C242.412 349.565 236.385 351.186 235.867 355.894C235.862 355.939 235.857 355.985 235.852 356.031C236.216 356.236 236.571 356.453 236.92 356.683C237.357 356.976 237.696 357.393 237.892 357.881C238.088 358.369 238.132 358.905 238.018 359.419C237.904 359.932 237.638 360.399 237.254 360.759C236.87 361.118 236.387 361.354 235.867 361.434L235.814 361.442C235.943 362.752 236.172 364.05 236.499 365.325C233.359 377.465 240.137 381.887 249.815 382.086C250.029 382.195 250.237 382.305 250.45 382.409C248.613 387.616 247.46 393.04 247.021 398.545C246.773 401.792 246.788 405.054 247.065 408.3L247.049 408.185C246.347 404.576 244.422 401.32 241.598 398.966C237.404 395.521 231.478 394.253 226.953 391.483C226.472 391.175 225.913 391.01 225.342 391.008C224.77 391.007 224.21 391.169 223.728 391.475C223.245 391.782 222.861 392.22 222.619 392.738C222.377 393.255 222.289 393.832 222.364 394.398C222.37 394.438 222.376 394.479 222.382 394.519C223.057 394.794 223.714 395.11 224.349 395.466C224.712 395.672 225.068 395.889 225.416 396.119C225.854 396.412 226.193 396.829 226.389 397.317C226.585 397.805 226.629 398.341 226.515 398.854C226.401 399.368 226.135 399.835 225.751 400.195C225.367 400.554 224.884 400.79 224.364 400.87L224.31 400.878C224.272 400.883 224.239 400.889 224.201 400.894C225.354 403.646 226.971 406.179 228.983 408.382C230.946 418.979 239.377 419.985 248.396 416.899H248.402C249.391 421.198 250.825 425.384 252.68 429.387H267.963C268.017 429.217 268.067 429.042 268.116 428.872C266.701 428.961 265.281 428.876 263.887 428.62C265.021 427.229 266.155 425.827 267.289 424.435C267.314 424.409 267.338 424.382 267.36 424.353C267.935 423.641 268.516 422.935 269.091 422.223L269.091 422.222C269.122 420.039 268.872 417.862 268.346 415.743L268.346 415.743Z" fill="#F2F2F2"/>
<path d="M245.702 174.113C228.482 174.113 211.649 169.008 197.331 159.442C183.013 149.876 171.854 136.279 165.264 120.372C158.674 104.464 156.95 86.9602 160.31 70.0728C163.669 53.1855 171.961 37.6734 184.138 25.4983C196.314 13.3233 211.827 5.03191 228.716 1.67281C245.605 -1.68629 263.111 0.0377189 279.02 6.62683C294.929 13.2159 308.527 24.3742 318.094 38.6906C327.661 53.007 332.767 69.8385 332.767 87.0567C332.741 110.138 323.559 132.266 307.237 148.586C290.915 164.907 268.785 174.087 245.702 174.113ZM245.702 1.37101C228.753 1.37101 212.185 6.39639 198.093 15.8117C184.001 25.2269 173.017 38.6092 166.531 54.2662C160.045 69.9232 158.348 87.1518 161.654 103.773C164.961 120.395 173.123 135.662 185.107 147.646C197.092 159.629 212.361 167.79 228.984 171.096C245.607 174.402 262.837 172.705 278.496 166.22C294.154 159.735 307.538 148.752 316.954 134.661C326.37 120.57 331.396 104.004 331.396 87.0567C331.37 64.3393 322.333 42.5598 306.268 26.4961C290.203 10.4325 268.421 1.39668 245.702 1.37101Z" fill="#F2F2F2"/>
<path d="M255.255 118.589H236.745C235.836 118.589 234.964 118.228 234.321 117.585C233.679 116.943 233.317 116.071 233.317 115.162C233.317 114.253 233.679 113.381 234.321 112.738C234.964 112.095 235.836 111.734 236.745 111.734H255.255C256.164 111.734 257.036 112.095 257.679 112.738C258.322 113.381 258.683 114.253 258.683 115.162C258.683 116.071 258.322 116.943 257.679 117.585C257.036 118.228 256.164 118.589 255.255 118.589Z" fill="#E6E6E6"/>
<path d="M259.507 218.065H232.493C231.166 218.065 229.894 217.538 228.955 216.6C228.017 215.662 227.49 214.389 227.49 213.063C227.49 211.736 228.017 210.464 228.955 209.526C229.894 208.588 231.166 208.061 232.493 208.061H259.507C260.834 208.061 262.107 208.588 263.045 209.526C263.983 210.464 264.51 211.736 264.51 213.063C264.51 214.389 263.983 215.662 263.045 216.6C262.107 217.538 260.834 218.065 259.507 218.065Z" fill="#DA190D"/>
<path d="M336.295 197.099H155.704C154.095 197.097 152.552 196.457 151.414 195.319C150.277 194.181 149.637 192.639 149.635 191.03V137.196C149.637 135.587 150.277 134.044 151.414 132.907C152.552 131.769 154.095 131.129 155.704 131.127H336.295C337.904 131.129 339.447 131.769 340.585 132.907C341.723 134.044 342.363 135.587 342.365 137.196V191.03C342.363 192.639 341.723 194.181 340.585 195.319C339.447 196.457 337.904 197.097 336.295 197.099Z" fill="#E6E6E6"/>
<path d="M318.749 193.004H159.799C158.19 193.002 156.647 192.362 155.509 191.225C154.371 190.087 153.731 188.544 153.729 186.936V141.291C153.731 139.682 154.371 138.14 155.509 137.002C156.647 135.864 158.19 135.225 159.799 135.223H332.202C333.811 135.225 335.353 135.864 336.491 137.002C337.629 138.14 338.269 139.682 338.271 141.291V173.484C338.265 178.659 336.206 183.621 332.546 187.28C328.887 190.94 323.924 192.998 318.749 193.004Z" fill="white"/>
<path d="M263.921 151.456H191.337C190.922 151.456 190.523 151.292 190.23 150.998C189.936 150.704 189.771 150.306 189.771 149.891C189.771 149.476 189.936 149.078 190.23 148.785C190.523 148.491 190.922 148.326 191.337 148.326H263.921C264.336 148.326 264.734 148.491 265.028 148.785C265.321 149.078 265.486 149.476 265.486 149.891C265.486 150.306 265.321 150.704 265.028 150.998C264.734 151.292 264.336 151.456 263.921 151.456Z" fill="#DA190D"/>
<path d="M300.664 157.857H191.337C190.922 157.857 190.523 157.692 190.23 157.398C189.936 157.105 189.771 156.707 189.771 156.292C189.771 155.877 189.936 155.479 190.23 155.185C190.523 154.891 190.922 154.727 191.337 154.727H300.664C301.079 154.727 301.477 154.891 301.771 155.185C302.064 155.479 302.229 155.877 302.229 156.292C302.229 156.707 302.064 157.105 301.771 157.398C301.477 157.692 301.079 157.857 300.664 157.857Z" fill="#E6E6E6"/>
<path d="M300.663 165.206H191.336C191.13 165.207 190.926 165.167 190.736 165.088C190.546 165.01 190.373 164.895 190.227 164.749C190.082 164.604 189.966 164.431 189.887 164.241C189.808 164.051 189.768 163.847 189.768 163.641C189.768 163.435 189.808 163.232 189.887 163.042C189.966 162.851 190.082 162.679 190.227 162.533C190.373 162.388 190.546 162.273 190.736 162.194C190.926 162.116 191.13 162.076 191.336 162.076H300.663C301.078 162.077 301.475 162.242 301.768 162.536C302.061 162.829 302.225 163.227 302.225 163.641C302.225 164.056 302.061 164.453 301.768 164.747C301.475 165.04 301.078 165.206 300.663 165.206Z" fill="#E6E6E6"/>
<path d="M300.663 172.554H191.336C191.13 172.555 190.926 172.514 190.736 172.436C190.546 172.357 190.373 172.242 190.227 172.097C190.082 171.951 189.966 171.779 189.887 171.589C189.808 171.399 189.768 171.195 189.768 170.989C189.768 170.783 189.808 170.579 189.887 170.389C189.966 170.199 190.082 170.026 190.227 169.881C190.373 169.736 190.546 169.62 190.736 169.542C190.926 169.464 191.13 169.423 191.336 169.424H300.663C301.078 169.425 301.475 169.59 301.768 169.883C302.061 170.177 302.225 170.574 302.225 170.989C302.225 171.403 302.061 171.801 301.768 172.095C301.475 172.388 301.078 172.553 300.663 172.554Z" fill="#E6E6E6"/>
<path d="M300.663 179.902H191.336C191.13 179.902 190.926 179.862 190.736 179.784C190.546 179.705 190.373 179.59 190.227 179.444C190.082 179.299 189.966 179.126 189.887 178.936C189.808 178.746 189.768 178.542 189.768 178.337C189.768 178.131 189.808 177.927 189.887 177.737C189.966 177.547 190.082 177.374 190.227 177.229C190.373 177.083 190.546 176.968 190.736 176.89C190.926 176.811 191.13 176.771 191.336 176.771H300.663C301.078 176.772 301.475 176.938 301.768 177.231C302.061 177.524 302.225 177.922 302.225 178.337C302.225 178.751 302.061 179.149 301.768 179.442C301.475 179.736 301.078 179.901 300.663 179.902Z" fill="#E6E6E6"/>
<path d="M396.721 422.147L389.385 422.146L385.895 393.852L396.723 393.852L396.721 422.147Z" fill="#A0616A"/>
<path d="M396.979 429.8L374.419 429.799V429.514C374.419 427.185 375.344 424.952 376.991 423.305C378.638 421.659 380.871 420.734 383.2 420.733H383.201L387.322 417.607L395.01 420.734L396.98 420.734L396.979 429.8Z" fill="#141415"/>
<path d="M456.701 412.754L450.127 416.011L434.437 392.206L444.139 387.4L456.701 412.754Z" fill="#A0616A"/>
<path d="M460.329 419.497L440.114 429.511L439.987 429.255C438.953 427.168 438.791 424.757 439.535 422.55C440.28 420.344 441.87 418.524 443.957 417.49L443.957 417.489L446.262 412.859L454.54 412.247L456.304 411.373L460.329 419.497Z" fill="#141415"/>
<path d="M374.988 270.056C374.988 270.056 366.636 281.697 372.664 301.808C378.692 321.919 375.308 339.899 377 343.505C378.692 347.11 382.099 350.534 379.284 353.267C376.469 356.001 374.988 358.223 377.21 358.964C379.433 359.705 386.843 411.569 386.843 411.569L399.44 412.309C399.44 412.309 404.003 388.218 399.128 368.775C399.128 368.775 400.198 354.661 397.967 350.515C395.735 346.369 396.172 350.109 396.324 344.905C396.408 341.141 396.957 337.403 397.958 333.774C398.699 330.81 399.128 300.941 399.128 300.941L411.391 340.578C411.882 341.944 412.067 343.401 411.931 344.846C411.628 346.888 411.625 349.939 411.997 351.007C412.369 352.075 412.783 352.299 412.576 354.41C412.369 356.52 437.049 401.008 437.049 401.008L449.311 392.782L437.229 353.778C436.03 352.449 435.031 350.951 434.266 349.333C432.784 346.369 432.726 346.206 433.496 344.065C434.266 341.924 434.266 337.752 434.266 336.504C434.266 335.255 435.035 278.578 425.388 270.242C415.741 261.906 374.988 270.056 374.988 270.056Z" fill="#141415"/>
<path d="M420.286 179.888L417.776 172.743L410.92 165.889L398.275 164.379L390.043 169.791L382.419 177.306L371.158 270.768C371.158 270.768 424.345 291.272 431.314 274.064L420.286 179.888Z" fill="#CCCCCC"/>
<path d="M424.597 179.887L417.21 172.5C417.21 172.5 413.681 219.711 415.184 223.031C416.688 226.351 418.458 225.504 416.545 227.299C414.631 229.093 412.574 227.312 414.631 230.602C415.843 232.447 416.438 234.628 416.329 236.833C416.329 236.833 426.971 303.811 433.141 303.811C439.311 303.811 443.174 302.005 442.956 300.166C442.739 298.327 439.099 293.749 440.233 292.611C441.367 291.473 444.163 292.332 441.394 290.189C438.625 288.045 437.254 288.731 437.94 285.989C438.625 283.247 433.384 247.701 433.384 247.701L432.873 188.329L424.597 179.887Z" fill="#141415"/>
<path d="M390.042 169.789L380.475 171.143L369.101 175.484C369.101 175.484 374.296 234.081 373.211 236.043C372.127 238.005 370.2 236.779 371.849 238.763C373.498 240.746 374.981 239.867 373.211 241.678C371.441 243.488 368.461 241.194 370.294 244.398C372.127 247.601 363.295 291.707 365.673 294.073C368.051 296.439 374.178 294.966 374.181 293.219C373.993 291.337 373.282 289.544 372.127 288.045C371.795 287.665 371.612 287.178 371.612 286.674C371.612 286.17 371.795 285.683 372.127 285.303C373.098 284.369 373.765 283.163 374.041 281.844C374.183 280.505 375.23 278.858 375.735 277.625C376.24 276.392 388.952 192.905 388.952 192.905L390.042 169.789Z" fill="#141415"/>
<path d="M349.221 215.928L353.536 213.676C348.148 208.817 334.781 200.867 334.781 200.867L311.742 185.336C311.405 184.542 310.864 183.851 310.175 183.332C309.486 182.814 308.672 182.486 307.815 182.382C306.959 182.277 306.09 182.401 305.297 182.739C304.503 183.077 303.813 183.618 303.295 184.308C302.777 184.998 302.45 185.812 302.347 186.669C302.244 187.525 302.368 188.393 302.707 189.187C303.046 189.98 303.588 190.669 304.279 191.186C304.969 191.703 305.784 192.029 306.641 192.131L332.46 215.261L349.221 215.928Z" fill="#A0616A"/>
<path d="M380.756 198.792L380.803 179.849L370.279 174.816L343.736 202.905L341.68 201.534H336.881L325.227 215.243C325.227 215.243 331.434 218.922 334.5 217.425C337.567 215.929 337.278 218.079 337.278 218.079C337.733 218.651 338.367 219.053 339.079 219.22C339.79 219.388 340.537 219.311 341.199 219.001C343.736 217.985 348.535 220.727 348.535 220.727L380.756 198.792Z" fill="#141415"/>
<path d="M405.98 160.027C414.456 160.027 421.327 153.157 421.327 144.681C421.327 136.206 414.456 129.336 405.98 129.336C397.504 129.336 390.633 136.206 390.633 144.681C390.633 153.157 397.504 160.027 405.98 160.027Z" fill="#A0616A"/>
<path d="M424.507 148.576C423.058 151.412 421.113 153.965 418.765 156.115C418.091 156.881 417.231 157.461 416.268 157.799C415.783 157.957 415.259 157.94 414.786 157.751C414.313 157.562 413.922 157.213 413.679 156.766L413.395 156.377C414.217 156.126 414.993 155.742 415.692 155.241C416.04 154.989 416.321 154.657 416.515 154.274C416.708 153.891 416.807 153.467 416.804 153.038C416.779 152.609 416.588 152.206 416.273 151.915C415.957 151.623 415.541 151.465 415.111 151.474C414.153 151.588 413.296 152.708 412.437 152.276C411.743 151.923 411.842 150.913 412.042 150.151C413.109 146.172 412.663 140.004 411.126 139.788C409.597 139.477 408.141 138.881 406.833 138.031C405.523 137.18 404.061 136.592 402.527 136.3C402.416 136.285 402.304 136.277 402.185 136.268C402.141 135.447 401.998 134.635 401.759 133.849C401.593 134.679 401.338 135.489 401 136.265C399.671 136.446 398.329 136.514 396.988 136.468C395.56 136.302 391.453 139.631 391.423 139.173C391.379 138.352 391.236 137.54 390.997 136.754C390.831 137.584 390.576 138.394 390.238 139.17C390.222 139.202 390.215 139.229 390.2 139.261C389.763 138.196 389.638 137.006 389.649 137.895C388.732 132.24 390.55 128.836 395.192 125.482C396.119 124.743 397.218 124.251 398.388 124.052C398.971 123.959 399.57 124.017 400.124 124.222C400.679 124.427 401.171 124.772 401.554 125.222C403.336 124.279 405.338 123.83 407.352 123.922C409.366 124.013 411.319 124.641 413.008 125.741C416.347 127.977 418.981 129.465 418.536 133.464C421.701 133.769 424.374 136.31 425.373 139.322C426.365 142.339 425.85 145.705 424.507 148.576Z" fill="#141415"/>
<path d="M444.096 228.538L433.085 226.961C429.362 233.187 428.038 249.759 428.038 249.759L417.263 275.368C416.549 275.852 415.976 276.516 415.601 277.293C415.225 278.07 415.061 278.932 415.125 279.792C415.188 280.652 415.477 281.48 415.963 282.193C416.449 282.906 417.113 283.479 417.891 283.853C418.668 284.228 419.53 284.391 420.39 284.326C421.25 284.261 422.078 283.971 422.791 283.485C423.503 282.998 424.075 282.333 424.449 281.555C424.822 280.778 424.984 279.916 424.918 279.056L442.611 249.248L444.096 228.538Z" fill="#A0616A"/>
<path d="M418.744 190.363L423.41 183.938L432.87 188.333L440.738 218.682C440.738 218.682 446.484 222.421 445.258 225.058C444.033 227.695 443.381 229.824 444.648 231.335C445.915 232.846 449.605 232.957 446.857 235.422C444.108 237.886 446.461 244.324 446.461 244.324L443.827 250.203L427.373 249.517L418.744 190.363Z" fill="#141415"/>
<path d="M38.2118 284.487C39.2503 283.672 39.9299 282.484 40.106 281.176C40.282 279.868 39.9406 278.543 39.1544 277.483C38.9912 277.27 38.8107 277.071 38.6146 276.887L45.6402 260.666L38.6625 254.205L31.4411 277.467C30.7442 278.339 30.3556 279.417 30.3358 280.533C30.316 281.648 30.6661 282.739 31.3316 283.635C31.7152 284.141 32.1947 284.567 32.7428 284.888C33.2909 285.209 33.8968 285.418 34.526 285.505C35.1551 285.592 35.7952 285.554 36.4096 285.393C37.024 285.232 37.6008 284.952 38.107 284.569C38.1423 284.542 38.1773 284.515 38.2118 284.487Z" fill="#FFB6B6"/>
<path d="M79.0271 179.254C79.0271 179.254 73.8265 169.369 61.7622 180.045C49.698 190.72 35.4418 244.157 35.7186 246.166C35.9955 248.175 38.9442 247.381 35.2145 250.273C31.4848 253.166 29.4225 250.567 31.4847 253.166C33.547 255.764 38.1586 258.518 34.0753 258.904C29.9921 259.291 44.9609 265.73 44.9609 265.73C44.9609 265.73 47.3154 265.165 48.0377 259.733C48.4434 256.682 47.0686 254.949 49.4887 254.441C51.9089 253.933 49.6404 248.415 49.9888 247.547C50.3372 246.679 69.661 208.761 69.661 208.761L79.0271 179.254Z" fill="#DA190D"/>
<path d="M102.777 420.687L111.513 420.687L115.669 386.992L102.775 386.993L102.777 420.687Z" fill="#FFB6B6"/>
<path d="M102.469 429.8L129.335 429.799V429.459C129.334 426.687 128.233 424.027 126.272 422.066C124.311 420.106 121.651 419.004 118.878 419.004H118.877L113.97 415.281L104.814 419.004L102.469 419.005L102.469 429.8Z" fill="#141415"/>
<path d="M41.542 404.618L48.6882 409.642L71.4718 384.47L60.9232 377.055L41.542 404.618Z" fill="#FFB6B6"/>
<path d="M36.0488 411.896L58.0256 427.346L58.2211 427.069C59.8161 424.8 60.4446 421.991 59.9685 419.259C59.4923 416.527 57.9504 414.097 55.682 412.502L55.6815 412.501L53.8087 406.634L44.1772 404.413L42.2588 403.064L36.0488 411.896Z" fill="#141415"/>
<path d="M67.9689 253.057L67.243 254.608C62.4715 264.8 61.2515 276.194 63.1058 287.295C63.2437 287.728 63.2173 288.197 63.0318 288.612C61.8819 289.96 63.6861 295.82 64.7202 299.092L65.6524 304.878C65.6524 304.878 64.1067 310.251 66.4545 309.856C68.8022 309.461 65.3062 315.193 67.5456 316.629L73.3549 352.687L49.1182 392.629L58.0947 405.644L94.001 359.419L94.4498 317.682L99.8357 351.341L100.285 404.298L116.615 402.562L122.598 351.22L116.891 280.216L107.915 249.43L67.9689 253.057Z" fill="#141415"/>
<path d="M79.189 160.615L92.4005 161.244L98.7181 172.157C101.52 172.998 104.097 174.457 106.259 176.426C108.421 178.396 110.114 180.826 111.211 183.536L115.325 193.699L110.645 252.458C110.645 252.458 109.707 256.012 111.434 255.493C113.161 254.974 112.457 259.428 112.457 259.428L118.823 283.91L60.9446 278.878L64.1584 252.939C64.1584 252.939 59.6901 253.083 62.8319 249.941C65.9737 246.8 67.5016 247.801 64.4835 244.087C61.4654 240.373 61.0166 237.68 61.0166 237.68L59.6701 219.28L57.4503 193.384C57.0981 189.275 57.7728 185.143 59.4138 181.36C61.0548 177.576 63.6106 174.26 66.8513 171.709L79.189 160.615Z" fill="#DA190D"/>
<path d="M86.0397 157.586C95.2929 157.586 102.794 150.085 102.794 140.833C102.794 131.581 95.2929 124.08 86.0397 124.08C76.7864 124.08 69.2852 131.581 69.2852 140.833C69.2852 150.085 76.7864 157.586 86.0397 157.586Z" fill="#FFB6B6"/>
<path d="M79.5662 156.213C84.3741 156.056 84.8108 154.786 89.6187 154.628C91.1496 154.578 92.9561 154.368 93.6963 153.027C93.9117 152.525 94.0076 151.979 93.9765 151.434C93.9454 150.888 93.7881 150.357 93.5169 149.882C92.9683 148.94 92.4738 147.967 92.0358 146.969C91.7719 146.186 91.7027 145.35 91.8341 144.535C91.9656 143.719 92.2937 142.947 92.7901 142.287C93.2866 141.626 93.9364 141.097 94.6835 140.744C95.4305 140.391 96.2524 140.225 97.0779 140.26C98.541 140.324 99.9152 141.012 101.374 141.137C103.375 141.31 107.8 134.703 106.879 132.919C105.982 131.182 104.177 129.871 103.894 127.937C103.708 126.672 104.23 125.415 104.302 124.139C104.407 122.246 99.609 126.514 100.488 124.834C102.643 120.713 82.3294 115.605 78.985 120.766C77.7351 122.695 75.5075 122.564 73.5221 123.722C72.2208 124.482 68.9349 127.101 68.1879 128.734C67.5015 130.4 67.1771 132.193 67.2364 133.994C67.2063 142.369 68.4824 150.073 75.2388 155.024" fill="#141415"/>
<path d="M127.13 283.767C126.142 282.891 125.534 281.665 125.437 280.349C125.339 279.032 125.759 277.73 126.607 276.719C126.783 276.516 126.975 276.328 127.181 276.156L121.137 259.544L128.488 253.512L134.308 277.163C134.951 278.075 135.275 279.174 135.228 280.289C135.181 281.404 134.766 282.472 134.049 283.327C133.635 283.809 133.131 284.205 132.565 284.493C131.999 284.781 131.381 284.954 130.748 285.003C130.115 285.052 129.478 284.976 128.875 284.778C128.271 284.581 127.712 284.267 127.229 283.854C127.196 283.826 127.163 283.796 127.13 283.767Z" fill="#FFB6B6"/>
<path d="M92.6699 176.285C92.6699 176.285 98.4514 166.728 109.857 178.105C121.262 189.481 132.303 243.674 131.907 245.663C131.51 247.652 128.614 246.683 132.165 249.793C135.715 252.902 137.929 250.431 135.715 252.903C133.501 255.374 128.734 257.847 132.786 258.476C136.839 259.106 121.513 264.64 121.513 264.64C121.513 264.64 119.196 263.935 118.799 258.47C118.577 255.4 120.052 253.753 117.667 253.101C115.281 252.449 117.875 247.077 117.579 246.189C117.283 245.302 100.258 206.299 100.258 206.299L92.6699 176.285Z" fill="#DA190D"/>
<path d="M259.379 85.1863C259.38 87.8985 258.576 90.55 257.07 92.8055C255.563 95.061 253.422 96.8192 250.916 97.8577C248.41 98.8962 245.653 99.1685 242.992 98.64C240.332 98.1116 237.888 96.8061 235.969 94.8888C234.051 92.9715 232.744 90.5283 232.214 87.8684C231.685 85.2084 231.955 82.4511 232.993 79.9451C234.03 77.4391 235.788 75.2969 238.042 73.7896C240.297 72.2822 242.949 71.4773 245.661 71.4766C247.463 71.4742 249.247 71.8271 250.912 72.5151C252.577 73.2032 254.09 74.2128 255.364 75.4863C256.638 76.7597 257.649 78.272 258.338 79.9365C259.027 81.6009 259.381 83.3849 259.379 85.1863Z" fill="#DA190D"/>
<path d="M245.967 87.173C248.617 87.173 250.766 85.0247 250.766 82.3746C250.766 79.7245 248.617 77.5762 245.967 77.5762C243.316 77.5762 241.168 79.7245 241.168 82.3746C241.168 85.0247 243.316 87.173 245.967 87.173Z" fill="white"/>
<path d="M251.111 88.8867H240.828C240.192 88.8874 239.582 89.1404 239.132 89.5902C238.682 90.04 238.429 90.6498 238.429 91.2859C238.575 93.3408 238.896 95.3795 239.388 97.3799C241.451 98.4425 243.749 98.9641 246.068 98.8958C248.387 98.8274 250.651 98.1714 252.647 96.9892C253.087 95.1143 253.376 93.2071 253.511 91.2859C253.51 90.6498 253.257 90.04 252.807 89.5902C252.357 89.1404 251.748 88.8874 251.111 88.8867Z" fill="white"/>
<path d="M3.61081e-06 430.185C-0.000315904 430.292 0.0205726 430.398 0.0614602 430.497C0.102348 430.597 0.162423 430.687 0.238246 430.762C0.314069 430.838 0.40414 430.898 0.503267 430.939C0.602395 430.98 0.708627 431.001 0.815854 431.001H491.184C491.401 431.001 491.608 430.915 491.761 430.762C491.914 430.609 492 430.401 492 430.185C492 429.969 491.914 429.761 491.761 429.608C491.608 429.455 491.401 429.369 491.184 429.369H0.815854C0.708628 429.369 0.602393 429.39 0.503267 429.431C0.404142 429.471 0.314078 429.532 0.238256 429.607C0.162434 429.683 0.102349 429.773 0.0614602 429.872C0.0205714 429.971 -0.000312264 430.078 3.61081e-06 430.185Z" fill="#CCCCCC"/>
</g>
<defs>
<clipPath id="clip0_120_3724">
<rect width="492" height="431" fill="white"/>
</clipPath>
</defs>
</svg>
